<?xml version="1.0" encoding="utf-8"?>
<svg xmlns="http://www.w3.org/2000/svg" height="256" width="256" viewBox="0 0 256 256">
  <g>
    <ellipse cy="128" cx="128" stroke-width="8.625" ry="123.6875" rx="123.6875" stroke="#F9F9F9" fill="transparent" />
    <path id="path1" transform="rotate(0,128,128) translate(64.6062713861465,59) scale(4.3125,4.3125)  " fill="#FFFFFF" d="M10.999997,11.6L11.299996,14.1 13.499996,15.300001 11.199996,16.300001 10.699997,18.700001 8.9999971,16.900001 6.5999985,17.200001 7.8999977,15.000001 6.7999983,12.800001 9.1999974,13.300001z M3.3999987,8.9000006L3.5999994,10.800001 5.2999983,11.700001 3.499999,12.500001 3.1999989,14.400001 1.8999996,13.000001 0,13.200001 1,11.500001 0.10000038,9.9000006 1.999999,10.200001z M12.799996,0L13.399996,0C22.199993,0 29.399991,7.2000008 29.399991,16.000001 29.399991,24.800001 22.199993,32.000001 13.399996,32.000001 9.2999973,32.000001 5.5999985,30.500001 2.7999992,28.000001 11.399997,27.700001 18.199994,20.700001 18.199995,12.000001 18.199994,7.2000008 16.099995,3 12.799996,0z" />
  </g>
</svg>

