<?xml version="1.0" encoding="utf-8"?>
<svg xmlns="http://www.w3.org/2000/svg" height="256" width="256" viewBox="0 0 256 256">
  <g>
    <ellipse cy="128" cx="128" stroke-width="8.625" ry="123.6875" rx="123.6875" stroke="#000000" fill="transparent" />
    <path id="path1" transform="rotate(0,128,128) translate(59,61.2791545391083) scale(4.3125,4.3125)  " fill="#000000" d="M16.000999,0L22.757004,7.4700031 17.588001,7.4700031 17.588001,13.384997 24.277,13.384997 24.277,8.9380054 32,15.472004 24.277,22.006002 24.277,16.804996 17.588001,16.804996 17.588001,23.474005 22.757004,23.474005 16.000999,30.943001 9.243,23.474005 14.050999,23.474005 14.050999,16.804996 7.7249985,16.804996 7.7249985,22.006002 0,15.472004 7.7249985,8.9380054 7.7249985,13.384997 14.050999,13.384997 14.050999,7.4700031 9.243,7.4700031z" />
  </g>
</svg>

