<?xml version="1.0" encoding="utf-8"?>
<svg xmlns="http://www.w3.org/2000/svg" height="256" width="256" viewBox="0 0 256 256">
  <g>
    <ellipse cy="128" cx="128" stroke-width="8.625" ry="123.6875" rx="123.6875" stroke="#000000" fill="transparent" />
    <path id="path1" transform="rotate(0,128,128) translate(59,59) scale(4.3125,4.3125)  " fill="#000000" d="M14.400024,25.100006L17.5,25.100006 17.5,32 14.400024,32z M23.5,21.300003L28.400024,26.200012 26.200012,28.400009 21.299988,23.5z M8.5,21.300003L10.700012,23.5 5.7999878,28.400009 3.6000366,26.200012z M25.100037,14.400009L32,14.400009 32,17.5 25.100037,17.5z M0,14.400009L6.9000244,14.400009 6.9000244,17.5 0,17.5z M16,11.600006L16,19.900009C18.299988,19.900009 20.200012,18 20.200012,15.700012 20.200012,13.5 18.299988,11.600006 16,11.600006z M16,9.2000122C19.600037,9.2000122 22.600037,12.100006 22.600037,15.800003 22.600037,19.400009 19.700012,22.400009 16,22.400009 12.400024,22.400009 9.4000244,19.5 9.4000244,15.800003 9.4000244,12.100006 12.400024,9.2000122 16,9.2000122z M26.200012,3.6000061L28.400024,5.8000031 23.5,10.700012 21.299988,8.5z M5.7999878,3.6000061L10.700012,8.5 8.5,10.700012 3.6000366,5.8000031z M14.400024,0L17.5,0 17.5,6.9000092 14.400024,6.9000092z" />
  </g>
</svg>

