<?xml version="1.0" encoding="UTF-8" standalone="no"?>
<svg
   xmlns:dc="http://purl.org/dc/elements/1.1/"
   xmlns:cc="http://creativecommons.org/ns#"
   xmlns:rdf="http://www.w3.org/1999/02/22-rdf-syntax-ns#"
   xmlns:svg="http://www.w3.org/2000/svg"
   xmlns="http://www.w3.org/2000/svg"
   xmlns:sodipodi="http://sodipodi.sourceforge.net/DTD/sodipodi-0.dtd"
   xmlns:inkscape="http://www.inkscape.org/namespaces/inkscape"
   height="256"
   width="256"
   viewBox="0 0 256 256"
   version="1.1"
   id="svg7"
   sodipodi:docname="No-User.svg"
   inkscape:version="0.92.4 (5da689c313, 2019-01-14)">
  <metadata
     id="metadata13">
    <rdf:RDF>
      <cc:Work
         rdf:about="">
        <dc:format>image/svg+xml</dc:format>
        <dc:type
           rdf:resource="http://purl.org/dc/dcmitype/StillImage" />
      </cc:Work>
    </rdf:RDF>
  </metadata>
  <defs
     id="defs11" />
  <sodipodi:namedview
     pagecolor="#ffffff"
     bordercolor="#666666"
     borderopacity="1"
     objecttolerance="10"
     gridtolerance="10"
     guidetolerance="10"
     inkscape:pageopacity="0"
     inkscape:pageshadow="2"
     inkscape:window-width="1366"
     inkscape:window-height="745"
     id="namedview9"
     showgrid="false"
     inkscape:zoom="0.921875"
     inkscape:cx="-7.0508475"
     inkscape:cy="128"
     inkscape:window-x="-8"
     inkscape:window-y="-8"
     inkscape:window-maximized="1"
     inkscape:current-layer="svg7" />
  <g
     id="g5">
    <rect
       height="256"
       width="256"
       id="rect2"
       x="0"
       y="0"
       style="fill:#000000;fill-opacity:1" />
    <path
       id="path1"
       transform="matrix(4.3125,0,0,4.3125,59.752525,59)"
       d="m 15.827007,0 c 4.578996,0 8.519,3.1960449 8.519,9.2930298 0,3.9660032 -1.804002,7.9959712 -4.16501,10.4989622 h 0.01201 c -0.906005,2.835022 0.543992,3.507019 0.772995,3.584046 5.031008,1.713989 10.685002,4.941955 10.685002,8.25 V 32 H 0 v -0.373962 c 8.034749e-8,-3.212037 5.6260008,-6.465027 10.421,-8.25 0.345993,-0.131043 2.001999,-1.059021 1.076004,-3.558045 C 9.1220035,17.321045 7.3279971,13.275024 7.3279971,9.2930298 7.3279971,3.1960449 11.245006,0 15.827007,0 Z"
       inkscape:connector-curvature="0"
       style="fill:#ffffff" />
  </g>
</svg>
